<?xml version="1.0" encoding="UTF-8"?>
<svg id="Layer_2" data-name="Layer 2" xmlns="http://www.w3.org/2000/svg" viewBox="0 0 241.36 241.36">
  <defs>
    <style>
      .cls-1 {
        fill: #fff;
      }

      .cls-2 {
        fill: #3f3594;
      }
    </style>
  </defs>
  <g id="Layer_1-2" data-name="Layer 1">
    <rect class="cls-2" width="241.36" height="241.36" rx="67.88" ry="67.88"/>
    <g>
      <path class="cls-1" d="M178.46,96.54c-.38,25.1-21.33,45.03-46.43,45.03h-59.48c-5.33,0-9.65-4.32-9.65-9.65h0c0-5.33,4.32-9.65,9.65-9.65h57.36c7.3,0,13.91-2.96,18.7-7.74,4.78-4.78,7.74-11.4,7.74-18.7,0-14.6-11.83-26.44-26.44-26.44h-57.36c-5.33,0-9.65-4.32-9.65-9.65h0c0-5.33,4.32-9.65,9.65-9.65h60.17c25.46,0,46.13,20.9,45.74,46.45Z"/>
      <rect class="cls-1" x="62.9" y="86.18" width="73.6" height="19.3" rx="9.65" ry="9.65"/>
      <rect class="cls-1" x="62.9" y="152.06" width="73.6" height="19.3" rx="9.65" ry="9.65"/>
    </g>
  </g>
</svg>